<svg width="21" height="20" viewBox="0 0 21 20" fill="none" xmlns="http://www.w3.org/2000/svg">
<path fill-rule="evenodd" clip-rule="evenodd" d="M6.125 2.5C5.64174 2.5 5.25 2.8731 5.25 3.33333V15C5.25 15.4602 5.64174 15.8333 6.125 15.8333H10.9375V16.6667H6.125C5.15852 16.6667 4.375 15.9205 4.375 15V3.33333C4.375 2.41286 5.15852 1.66667 6.125 1.66667H14.875C15.8415 1.66667 16.625 2.41286 16.625 3.33333V15C16.625 15.9205 15.8415 16.6667 14.875 16.6667H13.5625V15.8333H14.875C15.3583 15.8333 15.75 15.4602 15.75 15V3.33333C15.75 2.8731 15.3583 2.5 14.875 2.5H6.125Z" fill="#333333"/>
<path fill-rule="evenodd" clip-rule="evenodd" d="M7.875 4.58333C7.875 4.35321 8.07087 4.16667 8.3125 4.16667H12.6875C12.9291 4.16667 13.125 4.35321 13.125 4.58333C13.125 4.81346 12.9291 5 12.6875 5H8.3125C8.07087 5 7.875 4.81346 7.875 4.58333Z" fill="#333333"/>
<path fill-rule="evenodd" clip-rule="evenodd" d="M6.125 7.08333C6.125 6.85321 6.32087 6.66667 6.5625 6.66667H14.4375C14.6791 6.66667 14.875 6.85321 14.875 7.08333C14.875 7.31346 14.6791 7.5 14.4375 7.5H6.5625C6.32087 7.5 6.125 7.31346 6.125 7.08333Z" fill="#333333"/>
<path fill-rule="evenodd" clip-rule="evenodd" d="M6.125 8.75C6.125 8.51988 6.32087 8.33333 6.5625 8.33333H14.4375C14.6791 8.33333 14.875 8.51988 14.875 8.75C14.875 8.98013 14.6791 9.16667 14.4375 9.16667H6.5625C6.32087 9.16667 6.125 8.98013 6.125 8.75Z" fill="#333333"/>
<path fill-rule="evenodd" clip-rule="evenodd" d="M6.125 10.4167C6.125 10.1865 6.32087 10 6.5625 10H14.4375C14.6791 10 14.875 10.1865 14.875 10.4167C14.875 10.6468 14.6791 10.8333 14.4375 10.8333H6.5625C6.32087 10.8333 6.125 10.6468 6.125 10.4167Z" fill="#333333"/>
<path fill-rule="evenodd" clip-rule="evenodd" d="M12.25 14.5833C12.7333 14.5833 13.125 14.2102 13.125 13.75C13.125 13.2897 12.7333 12.9167 12.25 12.9167C11.7667 12.9167 11.375 13.2897 11.375 13.75C11.375 14.2102 11.7667 14.5833 12.25 14.5833ZM12.25 15.4167C13.2165 15.4167 14 14.6705 14 13.75C14 12.8295 13.2165 12.0833 12.25 12.0833C11.2835 12.0833 10.5 12.8295 10.5 13.75C10.5 14.6705 11.2835 15.4167 12.25 15.4167Z" fill="#333333"/>
<path fill-rule="evenodd" clip-rule="evenodd" d="M11.8125 14.5833H10.9375V18.3333L12.25 17.7083L13.5625 18.3333V14.5833H12.6875V16.985L12.25 16.7766L11.8125 16.985V14.5833Z" fill="#333333"/>
</svg>
