<svg width="28" height="28" viewBox="0 0 28 28" fill="none" xmlns="http://www.w3.org/2000/svg">
<path fill-rule="evenodd" clip-rule="evenodd" d="M8.16671 3.5C7.52236 3.5 7.00004 4.02233 7.00004 4.66667V21C7.00004 21.6443 7.52236 22.1667 8.16671 22.1667H14.5834V23.3333H8.16671C6.87807 23.3333 5.83337 22.2886 5.83337 21V4.66667C5.83337 3.378 6.87807 2.33333 8.16671 2.33333H19.8334C21.122 2.33333 22.1667 3.378 22.1667 4.66667V21C22.1667 22.2886 21.122 23.3333 19.8334 23.3333H18.0834V22.1667H19.8334C20.4777 22.1667 21 21.6443 21 21V4.66667C21 4.02233 20.4777 3.5 19.8334 3.5H8.16671Z" fill="#333333"/>
<path fill-rule="evenodd" clip-rule="evenodd" d="M10.5 6.41667C10.5 6.09449 10.7612 5.83333 11.0833 5.83333H16.9167C17.2388 5.83333 17.5 6.09449 17.5 6.41667C17.5 6.73884 17.2388 7 16.9167 7H11.0833C10.7612 7 10.5 6.73884 10.5 6.41667Z" fill="#333333"/>
<path fill-rule="evenodd" clip-rule="evenodd" d="M8.16663 9.91667C8.16663 9.59449 8.42778 9.33333 8.74996 9.33333H19.25C19.5721 9.33333 19.8333 9.59449 19.8333 9.91667C19.8333 10.2388 19.5721 10.5 19.25 10.5H8.74996C8.42778 10.5 8.16663 10.2388 8.16663 9.91667Z" fill="#333333"/>
<path fill-rule="evenodd" clip-rule="evenodd" d="M8.16663 12.25C8.16663 11.9278 8.42778 11.6667 8.74996 11.6667H19.25C19.5721 11.6667 19.8333 11.9278 19.8333 12.25C19.8333 12.5722 19.5721 12.8333 19.25 12.8333H8.74996C8.42778 12.8333 8.16663 12.5722 8.16663 12.25Z" fill="#333333"/>
<path fill-rule="evenodd" clip-rule="evenodd" d="M8.16663 14.5833C8.16663 14.2612 8.42778 14 8.74996 14H19.25C19.5721 14 19.8333 14.2612 19.8333 14.5833C19.8333 14.9055 19.5721 15.1667 19.25 15.1667H8.74996C8.42778 15.1667 8.16663 14.9055 8.16663 14.5833Z" fill="#333333"/>
<path fill-rule="evenodd" clip-rule="evenodd" d="M16.3333 20.4167C16.9777 20.4167 17.5 19.8943 17.5 19.25C17.5 18.6056 16.9777 18.0833 16.3333 18.0833C15.689 18.0833 15.1667 18.6056 15.1667 19.25C15.1667 19.8943 15.689 20.4167 16.3333 20.4167ZM16.3333 21.5833C17.622 21.5833 18.6667 20.5386 18.6667 19.25C18.6667 17.9614 17.622 16.9167 16.3333 16.9167C15.0447 16.9167 14 17.9614 14 19.25C14 20.5386 15.0447 21.5833 16.3333 21.5833Z" fill="#333333"/>
<path fill-rule="evenodd" clip-rule="evenodd" d="M15.75 20.4167H14.5834V25.6667L16.3334 24.7917L18.0834 25.6667V20.4167H16.9167V23.7789L16.3334 23.4873L15.75 23.7789V20.4167Z" fill="#333333"/>
</svg>
